<svg id="Layer_1" data-name="Layer 1" xmlns="http://www.w3.org/2000/svg" viewBox="0 0 1200 468.88"><defs><style>.cls-1{fill:#737fec;}.cls-2{fill:#37384c;}.cls-3{fill:#377dff;}</style></defs><path class="cls-1" d="M45.5,273.68H177c7.86,0,14.23,5,14.23,11.25v14.36c0,6.21-6.37,11.24-14.23,11.24H145.49c-7.85,0-14.22,5-14.22,11.24V442.51c0,6.21-6.37,11.24-14.22,11.24H45.5c-7.86,0-14.23-5-14.23-11.24V284.93C31.27,278.72,37.64,273.68,45.5,273.68Z"/><rect class="cls-2" x="31.27" y="81.71" width="100.47" height="143.98" rx="2.63"/><rect class="cls-2" x="213.49" y="42.74" width="100.47" height="143.98" rx="2.63"/><path class="cls-1" d="M227.36,409.47h76.06c7.66,0,13.87-4.91,13.87-11v-153c0-6.06-6.21-11-13.87-11H166.09c-7.66,0-13.87,4.91-13.87,11v8.77c0,6.06,6.21,11,13.87,11h33.53c7.66,0,13.87,4.91,13.87,11V398.51C213.49,404.56,219.7,409.47,227.36,409.47Z"/><path class="cls-1" d="M461.66,87.53c0,25.37-19.33,45.9-49.52,45.9-29,0-48.32-20.53-47.72-45.9C363.82,61,383.15,41,412.74,41S461.06,61,461.66,87.53ZM366.84,453.75V158.41h91.8V453.75Z"/><path class="cls-1" d="M502.13,255.65c0-43.49-1.21-71.87-2.42-97.24h79.12l3,54.36h2.42c15.1-42.89,51.33-61,79.72-61,8.45,0,12.69,0,19.33,1.21v86.37a130.47,130.47,0,0,0-24.76-2.42c-33.83,0-56.78,18.11-62.82,46.51A108.77,108.77,0,0,0,593.93,304V453.75h-91.8Z"/><path class="cls-1" d="M767.27,335.37c3,38.05,40.46,56.18,83.34,56.18,31.41,0,56.78-4.24,81.54-12.08l12.08,62.2c-30.2,12.08-67,18.12-106.91,18.12-100.25,0-157.63-58-157.63-150.38,0-74.9,46.5-157.64,149.18-157.64,95.42,0,131.67,74.28,131.67,147.37a219,219,0,0,1-3,36.23Zm108.11-62.81c0-22.35-9.66-59.79-52-59.79-38.65,0-54.35,35-56.77,59.79Z"/><circle class="cls-3" cx="1052.74" cy="129.91" r="51.81"/><circle class="cls-1" cx="1052.74" cy="129.53" r="51.81"/><circle class="cls-2" cx="1098.37" cy="174.27" r="12.18"/><path class="cls-2" d="M1052.74,17.84a111.69,111.69,0,1,0,111.69,111.69A111.69,111.69,0,0,0,1052.74,17.84Zm67.92,194A17.93,17.93,0,0,1,1106.45,183a75.73,75.73,0,1,1,2.55-2.69,17.94,17.94,0,1,1,11.66,31.57Z"/><circle class="cls-1" cx="1157.43" cy="221.46" r="27.56"/></svg>