<svg xmlns="http://www.w3.org/2000/svg" viewBox="0 0 500 500"><g id="freepik--Floor--inject-280"><ellipse id="freepik--floor--inject-280" cx="244.23" cy="340.15" rx="230.04" ry="139.27" style="fill:#f5f5f5"></ellipse></g><g id="freepik--Shadows--inject-280"><ellipse id="freepik--Shadow--inject-280" cx="75.37" cy="426.81" rx="39.78" ry="22.97" style="fill:#e0e0e0"></ellipse><ellipse id="freepik--shadow--inject-280" cx="427.2" cy="293.64" rx="38.25" ry="22.08" style="fill:#e0e0e0"></ellipse></g><g id="freepik--Plants--inject-280"><g id="freepik--plants--inject-280"><path d="M448.76,286.37c2.38-3.3,9.23-6.64,18-7.93s17.66-3,16-8.18c-1.78-5.57-9.82-6.39-17.92-3.69-8.86,2.94-15.82,11.25-16.32,16.73Z" style="fill:#7371E2"></path><g style="opacity:0.1"><path d="M448.76,286.37c2.38-3.3,9.23-6.64,18-7.93s17.66-3,16-8.18c-1.78-5.57-9.82-6.39-17.92-3.69-8.86,2.94-15.82,11.25-16.32,16.73Z"></path></g><path d="M448.18,284.75a.64.64,0,0,0,.61-.33c7.86-13.77,24-15,28.95-13.86a.65.65,0,0,0,.28-1.27c-5.23-1.18-22.14.08-30.36,14.49a.67.67,0,0,0,.25.89A.65.65,0,0,0,448.18,284.75Z" style="fill:#fff"></path><path d="M448.79,284.42s2-12.88,16.32-22.29a98.84,98.84,0,0,0,9.32-7.57c5.32-4.52,3.6-9.95-3.32-10.32-10.28-.56-18.38,7.58-22.4,18.67A33.32,33.32,0,0,0,448.79,284.42Z" style="fill:#7371E2"></path><path d="M447.55,279.89a.66.66,0,0,0,.69-.55c3.35-20.74,20-30.14,24.39-31a.65.65,0,1,0-.23-1.27c-5.35,1-22,10.79-25.44,32a.64.64,0,0,0,.53.74Z" style="fill:#fff"></path></g><g id="freepik--plants--inject-280"><path d="M52.24,395.23s-.6-4.79-8.34-11.43-13.38-6.74-17.27-12.1,6-12.66,18.86-2.08c14.56,12,9.72,25.29,9.72,25.29Z" style="fill:#7371E2"></path><g style="opacity:0.1"><path d="M52.24,395.23s-.6-4.79-8.34-11.43-13.38-6.74-17.27-12.1,6-12.66,18.86-2.08c14.56,12,9.72,25.29,9.72,25.29Z"></path></g><path d="M54.36,394.25a.58.58,0,0,1-.19,0,.53.53,0,0,1-.3-.68c1.41-3.66-2.76-12.39-8.11-17a41.38,41.38,0,0,0-13.35-7.74.54.54,0,0,1-.35-.65.53.53,0,0,1,.65-.35,41.46,41.46,0,0,1,13.73,7.95c5.73,4.92,10,14.08,8.4,18.16A.51.51,0,0,1,54.36,394.25Z" style="fill:#fff"></path><path d="M56.32,418.85a4.75,4.75,0,0,1-.57-1.36c-1.09-2.77-3.78-4.61-6.58-5.62s-5.8-1.34-8.67-2.11c-2-.53-4.13-1.46-4.94-3.36-1.21-2.82,1.1-6.43-.56-9a6.77,6.77,0,0,0-2.82-2.14c-2-1-4-2-6-3.07a3.55,3.55,0,0,1-1.93-4,3.64,3.64,0,0,1,.63-1.24c1.62-2.19,5.13-3,7.72-3.06a24.4,24.4,0,0,1,8.22,1.18,36.17,36.17,0,0,0,5,1.48c1.73.27,3.58.34,5.1,1.32,2.12,1.39,2.85,4.11,3.42,6.58a65.73,65.73,0,0,0,1.73,7.4,53.16,53.16,0,0,1,2.12,7.82,52.25,52.25,0,0,1,1,8.17l-1.77.88C56.81,419,56.51,419,56.32,418.85Z" style="fill:#7371E2"></path><path d="M53,403.73a.51.51,0,0,1-.17,0c-6-2.23-12.53,0-12.6,0a.46.46,0,0,1-.58-.29.45.45,0,0,1,.28-.58c.28-.1,7-2.34,13.23,0a.46.46,0,0,1,.26.59A.44.44,0,0,1,53,403.73Z" style="fill:#fff"></path><path d="M58.51,418.63a.46.46,0,0,1-.46-.39c-.63-4.31-3.59-14.23-10.21-20.93-8.84-8.93-19-8.47-19.11-8.47a.44.44,0,0,1-.48-.44.46.46,0,0,1,.43-.48c.1,0,10.67-.49,19.81,8.74,6.79,6.87,9.82,17,10.47,21.45a.46.46,0,0,1-.39.52Z" style="fill:#fff"></path></g></g><g id="freepik--Screen--inject-280"><g id="freepik--Window--inject-280"><g id="freepik--window--inject-280"><path d="M316.74,47.89a1.67,1.67,0,0,0-.07-.4s0-.06,0-.09a2.85,2.85,0,0,0-.36-.94.74.74,0,0,0-.14-.22.51.51,0,0,0-.13-.16,1.28,1.28,0,0,0-.28-.29l0,0a2,2,0,0,0-.37-.22,3.16,3.16,0,0,0-2.92.37l-190,109.36a9.6,9.6,0,0,0-4.34,7.51V371.44a2.94,2.94,0,0,0,1.56,2.6l.19.13.23.13a2,2,0,0,0,.37.12,2.08,2.08,0,0,0,.55.07,2.69,2.69,0,0,0,1.44-.41l.11-.06h0l4.14-2.38,185.76-107a9.59,9.59,0,0,0,4.34-7.51V48.43A4.63,4.63,0,0,0,316.74,47.89Z" style="fill:#455a64"></path><path d="M315.35,45.55a3.16,3.16,0,0,0-2.92.37l-190,109.36a9.6,9.6,0,0,0-4.34,7.51V177l-5.54-3.25V159.64a9.56,9.56,0,0,1,4.33-7.49l190-109.36a3,3,0,0,1,3.14-.25C310.82,43,314.42,45.07,315.35,45.55Z" style="fill:#7371E2"></path><path d="M316.76,48.4c0-2.74-1.95-3.85-4.33-2.47l-190,109.35a9.58,9.58,0,0,0-4.33,7.51V177L316.76,62.62Z" style="fill:#7371E2"></path><g style="opacity:0.5"><path d="M312.43,45.93l-190,109.35a8.82,8.82,0,0,0-3,3.21l-5.51-3.18a8.63,8.63,0,0,1,3-3.17l190-109.35a3.07,3.07,0,0,1,3.15-.26c.78.48,4.38,2.52,5.29,3A3.16,3.16,0,0,0,312.43,45.93Z" style="fill:#fff"></path></g><path d="M112.53,173.73V159.64a9,9,0,0,1,1.32-4.33l5.52,3.17a8.78,8.78,0,0,0-1.29,4.31V177Z" style="opacity:0.15"></path><path d="M291.13,64.46c-1.35.78-2.45,3.1-2.45,5.19s1.1,3.13,2.45,2.35,2.45-3.1,2.45-5.18S292.48,63.68,291.13,64.46Z" style="fill:#455a64"></path><path d="M300,59.36c-1.36.78-2.45,3.1-2.45,5.19s1.09,3.13,2.45,2.35,2.45-3.1,2.45-5.18S301.3,58.58,300,59.36Z" style="fill:#455a64"></path><path d="M308.76,54.26c-1.35.78-2.45,3.1-2.45,5.19s1.1,3.13,2.45,2.35,2.45-3.1,2.45-5.18S310.12,53.48,308.76,54.26Z" style="fill:#455a64"></path><path d="M119.63,374.06l-.23-.13-4.57-2.64a4.6,4.6,0,0,1-2.26-3.36,4.44,4.44,0,0,1,0-.63V173.71l5.54,3.25V371.43a2.85,2.85,0,0,0,1.35,2.46,1.21,1.21,0,0,0,.14.1s0,0,0,0Z" style="fill:#263238;opacity:0.9"></path></g><g id="freepik--code--inject-280"><path d="M217.42,139.24l56.4-32.55c.85-.49,1.54-.14,1.54.78a3.29,3.29,0,0,1-1.54,2.55l-56.4,32.56c-.85.49-1.54.14-1.54-.78A3.31,3.31,0,0,1,217.42,139.24Z" style="fill:#7371E2"></path><path d="M242.57,165.13l60.49-35c.85-.49,1.54-.14,1.54.78a3.31,3.31,0,0,1-1.54,2.56l-60.49,35c-.85.49-1.54.14-1.54-.78A3.31,3.31,0,0,1,242.57,165.13Z" style="fill:#7371E2"></path><path d="M242.57,176.68l60.49-35c.85-.5,1.54-.15,1.54.77a3.29,3.29,0,0,1-1.54,2.56l-60.49,35c-.85.49-1.54.15-1.54-.78A3.29,3.29,0,0,1,242.57,176.68Z" style="fill:#7371E2"></path><path d="M279.79,103.24,304,89.37c.85-.49,1.54-.14,1.54.78A3.31,3.31,0,0,1,304,92.71l-24.21,13.87c-.85.49-1.54.14-1.54-.78A3.31,3.31,0,0,1,279.79,103.24Z" style="fill:#7371E2"></path><path d="M217.42,148.83l26.38-15.24c.85-.49,1.54-.15,1.54.78a3.29,3.29,0,0,1-1.54,2.55l-26.38,15.24c-.85.49-1.54.15-1.54-.78A3.29,3.29,0,0,1,217.42,148.83Z" style="fill:#7371E2"></path><path d="M217.42,148.83l26.38-15.24c.85-.49,1.54-.15,1.54.78a3.29,3.29,0,0,1-1.54,2.55l-26.38,15.24c-.85.49-1.54.15-1.54-.78A3.29,3.29,0,0,1,217.42,148.83Z" style="fill:#fff;opacity:0.6000000000000001"></path><path d="M217.42,158.35l14.08-8.08c.85-.49,1.54-.15,1.54.78a3.29,3.29,0,0,1-1.54,2.55l-14.08,8.09c-.85.49-1.54.14-1.54-.78A3.32,3.32,0,0,1,217.42,158.35Z" style="fill:#7371E2"></path><path d="M217.42,158.35l14.08-8.08c.85-.49,1.54-.15,1.54.78a3.29,3.29,0,0,1-1.54,2.55l-14.08,8.09c-.85.49-1.54.14-1.54-.78A3.32,3.32,0,0,1,217.42,158.35Z" style="fill:#fff;opacity:0.6000000000000001"></path><path d="M249.77,130.14,268,119.62c.85-.49,1.54-.14,1.54.78A3.31,3.31,0,0,1,268,123l-18.27,10.52c-.85.49-1.54.14-1.54-.78A3.31,3.31,0,0,1,249.77,130.14Z" style="fill:#7371E2"></path><path d="M249.77,130.14,268,119.62c.85-.49,1.54-.14,1.54.78A3.31,3.31,0,0,1,268,123l-18.27,10.52c-.85.49-1.54.14-1.54-.78A3.31,3.31,0,0,1,249.77,130.14Z" style="fill:#fff;opacity:0.6000000000000001"></path><path d="M278,178.82l26-14.91c.85-.49,1.54-.14,1.54.78a3.29,3.29,0,0,1-1.54,2.55l-26,14.91c-.85.5-1.54.15-1.54-.78A3.29,3.29,0,0,1,278,178.82Z" style="fill:#e6e6e6"></path><path d="M285.73,164.85,304,154.33c.85-.49,1.54-.14,1.54.78a3.31,3.31,0,0,1-1.54,2.56l-18.27,10.52c-.85.49-1.54.14-1.54-.78A3.31,3.31,0,0,1,285.73,164.85Z" style="fill:#e6e6e6"></path><path d="M253.78,183.21l26-14.91c.85-.49,1.54-.14,1.54.78a3.29,3.29,0,0,1-1.54,2.55l-26,14.91c-.85.5-1.54.15-1.54-.77A3.29,3.29,0,0,1,253.78,183.21Z" style="fill:#e6e6e6"></path><path d="M236.44,147.45l30.47-17.68c.86-.49,1.54-.14,1.54.78a3.3,3.3,0,0,1-1.54,2.56l-30.47,17.67c-.85.49-1.54.14-1.54-.78A3.29,3.29,0,0,1,236.44,147.45Z" style="fill:#7371E2"></path><path d="M236.44,147.45l30.47-17.68c.86-.49,1.54-.14,1.54.78a3.3,3.3,0,0,1-1.54,2.56l-30.47,17.67c-.85.49-1.54.14-1.54-.78A3.29,3.29,0,0,1,236.44,147.45Z" style="fill:#fff;opacity:0.6000000000000001"></path><path d="M272.88,126.32l30.21-17c.85-.49,1.54-.14,1.54.78a3.31,3.31,0,0,1-1.54,2.56l-30.21,17c-.85.49-1.54.14-1.54-.78A3.31,3.31,0,0,1,272.88,126.32Z" style="fill:#7371E2"></path><path d="M272.88,126.32l30.21-17c.85-.49,1.54-.14,1.54.78a3.31,3.31,0,0,1-1.54,2.56l-30.21,17c-.85.49-1.54.14-1.54-.78A3.31,3.31,0,0,1,272.88,126.32Z" style="fill:#fff;opacity:0.6000000000000001"></path><path d="M236.44,157.67,266.91,140c.86-.49,1.54-.14,1.54.78a3.3,3.3,0,0,1-1.54,2.56L236.44,161c-.85.49-1.54.14-1.54-.78A3.32,3.32,0,0,1,236.44,157.67Z" style="fill:#7371E2"></path><path d="M236.44,157.67,266.91,140c.86-.49,1.54-.14,1.54.78a3.3,3.3,0,0,1-1.54,2.56L236.44,161c-.85.49-1.54.14-1.54-.78A3.32,3.32,0,0,1,236.44,157.67Z" style="fill:#fff;opacity:0.6000000000000001"></path><path d="M272.88,136.55l30.21-17c.85-.49,1.54-.14,1.54.78a3.31,3.31,0,0,1-1.54,2.56l-30.21,17c-.85.49-1.54.14-1.54-.78A3.31,3.31,0,0,1,272.88,136.55Z" style="fill:#7371E2"></path><path d="M272.88,136.55l30.21-17c.85-.49,1.54-.14,1.54.78a3.31,3.31,0,0,1-1.54,2.56l-30.21,17c-.85.49-1.54.14-1.54-.78A3.31,3.31,0,0,1,272.88,136.55Z" style="fill:#fff;opacity:0.6000000000000001"></path><path d="M236.45,212.62,304,173.79c.85-.49,1.54-.15,1.54.78a3.29,3.29,0,0,1-1.54,2.55L236.45,216c-.86.5-1.54.15-1.54-.77A3.27,3.27,0,0,1,236.45,212.62Z" style="fill:#fff"></path><path d="M236.45,222.17,304,183.33c.85-.49,1.54-.14,1.54.78a3.29,3.29,0,0,1-1.54,2.56L236.45,225.5c-.86.49-1.54.14-1.54-.78A3.26,3.26,0,0,1,236.45,222.17Z" style="fill:#fff"></path><path d="M236.45,231.71,304,192.88c.85-.49,1.54-.14,1.54.78a3.31,3.31,0,0,1-1.54,2.56l-67.55,38.83c-.86.49-1.54.14-1.54-.78A3.3,3.3,0,0,1,236.45,231.71Z" style="fill:#e0e0e0"></path><path d="M236.94,244.16l36.88-21.24c.85-.49,1.54-.14,1.54.78a3.32,3.32,0,0,1-1.54,2.56L236.94,247.5c-.85.49-1.54.14-1.54-.78A3.32,3.32,0,0,1,236.94,244.16Z" style="fill:#7371E2"></path><path d="M279.79,219.36,304,205.58c.85-.49,1.54-.14,1.54.78a3.32,3.32,0,0,1-1.54,2.56l-24.21,13.77c-.85.5-1.54.15-1.54-.77A3.29,3.29,0,0,1,279.79,219.36Z" style="fill:#7371E2"></path><path d="M213.33,257.73l14.26-8.24c.85-.49,1.54-.14,1.54.78a3.31,3.31,0,0,1-1.54,2.56l-14.26,8.24c-.85.49-1.54.14-1.54-.78A3.32,3.32,0,0,1,213.33,257.73Z" style="fill:#7371E2"></path><path d="M213.33,257.73l14.26-8.24c.85-.49,1.54-.14,1.54.78a3.31,3.31,0,0,1-1.54,2.56l-14.26,8.24c-.85.49-1.54.14-1.54-.78A3.32,3.32,0,0,1,213.33,257.73Z" style="fill:#fff;opacity:0.6000000000000001"></path><path d="M213.33,266.37l14.26-8.24c.85-.49,1.54-.15,1.54.78a3.29,3.29,0,0,1-1.54,2.55l-14.26,8.24c-.85.49-1.54.15-1.54-.78A3.29,3.29,0,0,1,213.33,266.37Z" style="fill:#7371E2"></path><path d="M213.33,266.37l14.26-8.24c.85-.49,1.54-.15,1.54.78a3.29,3.29,0,0,1-1.54,2.55l-14.26,8.24c-.85.49-1.54.15-1.54-.78A3.29,3.29,0,0,1,213.33,266.37Z" style="fill:#fff;opacity:0.6000000000000001"></path><path d="M278,238.85l26-14.91c.85-.49,1.54-.14,1.54.78a3.31,3.31,0,0,1-1.54,2.56l-26,14.91c-.85.49-1.54.14-1.54-.78A3.31,3.31,0,0,1,278,238.85Z" style="fill:#e0e0e0"></path><path d="M285.73,224.48,304,214c.85-.49,1.54-.14,1.54.78a3.32,3.32,0,0,1-1.54,2.56l-18.27,10.51c-.85.49-1.54.14-1.54-.78A3.32,3.32,0,0,1,285.73,224.48Z" style="fill:#e0e0e0"></path><path d="M236.45,273.64,304,234.81c.85-.49,1.54-.14,1.54.78a3.31,3.31,0,0,1-1.54,2.56L236.45,277c-.86.49-1.54.14-1.54-.78A3.28,3.28,0,0,1,236.45,273.64Z" style="fill:#7371E2"></path><path d="M213.33,286.9l14.26-8.24c.85-.49,1.54-.14,1.54.78a3.29,3.29,0,0,1-1.54,2.55l-14.26,8.24c-.85.5-1.54.15-1.54-.78A3.29,3.29,0,0,1,213.33,286.9Z" style="fill:#7371E2"></path><path d="M213.33,286.9l14.26-8.24c.85-.49,1.54-.14,1.54.78a3.29,3.29,0,0,1-1.54,2.55l-14.26,8.24c-.85.5-1.54.15-1.54-.78A3.29,3.29,0,0,1,213.33,286.9Z" style="fill:#fff;opacity:0.6000000000000001"></path><path d="M236.45,283.07,304,244.24c.85-.49,1.54-.14,1.54.78a3.31,3.31,0,0,1-1.54,2.56l-67.55,38.83c-.86.49-1.54.14-1.54-.78A3.28,3.28,0,0,1,236.45,283.07Z" style="fill:#7371E2"></path><path d="M213.33,296.45l14.26-8.24c.85-.5,1.54-.15,1.54.77a3.29,3.29,0,0,1-1.54,2.56l-14.26,8.24c-.85.49-1.54.14-1.54-.78A3.29,3.29,0,0,1,213.33,296.45Z" style="fill:#7371E2"></path><path d="M213.33,296.45l14.26-8.24c.85-.5,1.54-.15,1.54.77a3.29,3.29,0,0,1-1.54,2.56l-14.26,8.24c-.85.49-1.54.14-1.54-.78A3.29,3.29,0,0,1,213.33,296.45Z" style="fill:#fff;opacity:0.6000000000000001"></path><path d="M236.45,292.66,304,253.83c.85-.49,1.54-.14,1.54.78a3.31,3.31,0,0,1-1.54,2.56L236.45,296c-.86.49-1.54.14-1.54-.78A3.28,3.28,0,0,1,236.45,292.66Z" style="fill:#fff"></path><path d="M213.33,306l14.26-8.24c.85-.49,1.54-.14,1.54.78a3.31,3.31,0,0,1-1.54,2.56l-14.26,8.24c-.85.49-1.54.14-1.54-.78A3.32,3.32,0,0,1,213.33,306Z" style="fill:#7371E2"></path><path d="M213.33,306l14.26-8.24c.85-.49,1.54-.14,1.54.78a3.31,3.31,0,0,1-1.54,2.56l-14.26,8.24c-.85.49-1.54.14-1.54-.78A3.32,3.32,0,0,1,213.33,306Z" style="fill:#fff;opacity:0.6000000000000001"></path><g style="opacity:0.6000000000000001"><path d="M191.11,277.56l8.38-4.84c.84-.49,1.52-.09,1.52.88v3.08a3.35,3.35,0,0,1-1.52,2.63l-8.38,4.84c-.84.49-1.52.09-1.52-.88v-3.08A3.32,3.32,0,0,1,191.11,277.56Z" style="fill:#fff"></path><path d="M191.11,289.81l8.38-4.83c.84-.49,1.52-.1,1.52.87v3.08a3.35,3.35,0,0,1-1.52,2.64l-8.38,4.84c-.84.48-1.52.09-1.52-.88v-3.08A3.35,3.35,0,0,1,191.11,289.81Z" style="fill:#fff"></path><path d="M191.11,302.07l8.38-4.84c.84-.48,1.52-.09,1.52.88v3.08a3.38,3.38,0,0,1-1.52,2.64l-8.38,4.84c-.84.48-1.52.09-1.52-.88v-3.08A3.35,3.35,0,0,1,191.11,302.07Z" style="fill:#fff"></path><path d="M191.11,314.33l8.38-4.84c.84-.48,1.52-.09,1.52.88v3.08a3.38,3.38,0,0,1-1.52,2.64l-8.38,4.83c-.84.49-1.52.09-1.52-.88V317A3.32,3.32,0,0,1,191.11,314.33Z" style="fill:#fff"></path></g><path d="M132.82,298.07l45.31-26.16c1.68-1,3-.18,3,1.76V326a6.72,6.72,0,0,1-3,5.27l-45.31,26.16c-1.69,1-3,.18-3-1.76V303.34A6.71,6.71,0,0,1,132.82,298.07Z" style="fill:#37474f"></path><path d="M137,345.08l4.17-2.41c.85-.49,1.54-.14,1.54.78a3.31,3.31,0,0,1-1.54,2.56l-4.17,2.4c-.85.49-1.54.14-1.54-.78A3.29,3.29,0,0,1,137,345.08Z" style="fill:#7371E2"></path><path d="M137,345.08l4.17-2.41c.85-.49,1.54-.14,1.54.78a3.31,3.31,0,0,1-1.54,2.56l-4.17,2.4c-.85.49-1.54.14-1.54-.78A3.29,3.29,0,0,1,137,345.08Z" style="fill:#fff;opacity:0.6000000000000001"></path><path d="M137,302.23l4.17-2.4c.85-.5,1.54-.15,1.54.77a3.29,3.29,0,0,1-1.54,2.56L137,305.57c-.85.49-1.54.14-1.54-.78A3.31,3.31,0,0,1,137,302.23Z" style="fill:#7371E2"></path><path d="M137,302.23l4.17-2.4c.85-.5,1.54-.15,1.54.77a3.29,3.29,0,0,1-1.54,2.56L137,305.57c-.85.49-1.54.14-1.54-.78A3.31,3.31,0,0,1,137,302.23Z" style="fill:#fff;opacity:0.6000000000000001"></path><path d="M142.88,307.4l4.17-2.41c.86-.49,1.55-.14,1.55.78a3.29,3.29,0,0,1-1.55,2.56l-4.17,2.4c-.85.49-1.54.14-1.54-.78A3.29,3.29,0,0,1,142.88,307.4Z" style="fill:#7371E2"></path><path d="M142.88,307.4l4.17-2.41c.86-.49,1.55-.14,1.55.78a3.29,3.29,0,0,1-1.55,2.56l-4.17,2.4c-.85.49-1.54.14-1.54-.78A3.29,3.29,0,0,1,142.88,307.4Z" style="fill:#fff;opacity:0.6000000000000001"></path><path d="M142.88,315.94l4.17-2.4c.86-.49,1.55-.14,1.55.78a3.31,3.31,0,0,1-1.55,2.56l-4.17,2.4c-.85.49-1.54.14-1.54-.78A3.31,3.31,0,0,1,142.88,315.94Z" style="fill:#7371E2"></path><path d="M142.88,315.94l4.17-2.4c.86-.49,1.55-.14,1.55.78a3.31,3.31,0,0,1-1.55,2.56l-4.17,2.4c-.85.49-1.54.14-1.54-.78A3.31,3.31,0,0,1,142.88,315.94Z" style="fill:#fff;opacity:0.6000000000000001"></path><path d="M137,327.93l4.17-2.4c.85-.49,1.54-.14,1.54.78a3.29,3.29,0,0,1-1.54,2.55L137,331.27c-.85.49-1.54.14-1.54-.78A3.31,3.31,0,0,1,137,327.93Z" style="fill:#7371E2"></path><path d="M137,327.93l4.17-2.4c.85-.49,1.54-.14,1.54.78a3.29,3.29,0,0,1-1.54,2.55L137,331.27c-.85.49-1.54.14-1.54-.78A3.31,3.31,0,0,1,137,327.93Z" style="fill:#fff;opacity:0.6000000000000001"></path><path d="M142.88,333.11l4.17-2.41c.86-.49,1.55-.14,1.55.78a3.29,3.29,0,0,1-1.55,2.56l-4.17,2.4c-.85.49-1.54.14-1.54-.78A3.29,3.29,0,0,1,142.88,333.11Z" style="fill:#7371E2"></path><path d="M142.88,333.11l4.17-2.41c.86-.49,1.55-.14,1.55.78a3.29,3.29,0,0,1-1.55,2.56l-4.17,2.4c-.85.49-1.54.14-1.54-.78A3.29,3.29,0,0,1,142.88,333.11Z" style="fill:#fff;opacity:0.6000000000000001"></path><path d="M148.44,295.64l25.48-14.71c.85-.49,1.54-.14,1.54.78a3.31,3.31,0,0,1-1.54,2.56L148.44,299c-.85.49-1.54.14-1.54-.78A3.29,3.29,0,0,1,148.44,295.64Z" style="fill:#7371E2"></path><path d="M148.44,295.64l25.48-14.71c.85-.49,1.54-.14,1.54.78a3.31,3.31,0,0,1-1.54,2.56L148.44,299c-.85.49-1.54.14-1.54-.78A3.29,3.29,0,0,1,148.44,295.64Z" style="fill:#fff;opacity:0.8"></path><path d="M148.44,338.49l25.48-14.71c.85-.49,1.54-.14,1.54.78a3.32,3.32,0,0,1-1.54,2.56l-25.48,14.7c-.85.49-1.54.14-1.54-.78A3.29,3.29,0,0,1,148.44,338.49Z" style="fill:#7371E2"></path><path d="M148.44,338.49l25.48-14.71c.85-.49,1.54-.14,1.54.78a3.32,3.32,0,0,1-1.54,2.56l-25.48,14.7c-.85.49-1.54.14-1.54-.78A3.29,3.29,0,0,1,148.44,338.49Z" style="fill:#fff;opacity:0.8"></path><path d="M154.31,300.8l19.61-11.3c.85-.49,1.54-.14,1.54.78a3.31,3.31,0,0,1-1.54,2.56l-19.61,11.3c-.85.49-1.54.14-1.54-.78A3.31,3.31,0,0,1,154.31,300.8Z" style="fill:#7371E2"></path><path d="M154.31,300.8l19.61-11.3c.85-.49,1.54-.14,1.54.78a3.31,3.31,0,0,1-1.54,2.56l-19.61,11.3c-.85.49-1.54.14-1.54-.78A3.31,3.31,0,0,1,154.31,300.8Z" style="fill:#fff;opacity:0.8"></path><path d="M154.31,309.37l19.61-11.3c.85-.49,1.54-.14,1.54.78a3.31,3.31,0,0,1-1.54,2.56l-19.61,11.3c-.85.49-1.54.14-1.54-.78A3.31,3.31,0,0,1,154.31,309.37Z" style="fill:#7371E2"></path><path d="M154.31,309.37l19.61-11.3c.85-.49,1.54-.14,1.54.78a3.31,3.31,0,0,1-1.54,2.56l-19.61,11.3c-.85.49-1.54.14-1.54-.78A3.31,3.31,0,0,1,154.31,309.37Z" style="fill:#fff;opacity:0.8"></path><path d="M148.44,321.35l25.48-14.71c.85-.49,1.54-.14,1.54.78a3.31,3.31,0,0,1-1.54,2.56l-25.48,14.7c-.85.49-1.54.15-1.54-.78A3.29,3.29,0,0,1,148.44,321.35Z" style="fill:#7371E2"></path><path d="M148.44,321.35l25.48-14.71c.85-.49,1.54-.14,1.54.78a3.31,3.31,0,0,1-1.54,2.56l-25.48,14.7c-.85.49-1.54.15-1.54-.78A3.29,3.29,0,0,1,148.44,321.35Z" style="fill:#fff;opacity:0.8"></path><path d="M154.31,326.51l19.61-11.3c.85-.49,1.54-.14,1.54.78a3.32,3.32,0,0,1-1.54,2.56l-19.61,11.3c-.85.49-1.54.14-1.54-.78A3.32,3.32,0,0,1,154.31,326.51Z" style="fill:#7371E2"></path><path d="M154.31,326.51l19.61-11.3c.85-.49,1.54-.14,1.54.78a3.32,3.32,0,0,1-1.54,2.56l-19.61,11.3c-.85.49-1.54.14-1.54-.78A3.32,3.32,0,0,1,154.31,326.51Z" style="fill:#fff;opacity:0.8"></path></g></g></g><g id="freepik--character-2--inject-280"><g id="freepik--Character--inject-280"><path d="M441.75,130.52c.05.45-1.53,1.39-1.53,1.39l.44-2.73Z" style="fill:#7371E2"></path><path d="M441.75,130.52c.05.45-1.53,1.39-1.53,1.39l.44-2.73Z" style="opacity:0.30000000000000004"></path><path d="M413.29,155.31c-2.07,4.77-5.23,12.95-7.75,19.44-4-.89-12.5-3.18-15.3-4.14s-4.68-1.74-5.18-2.32c-.89-.79-1-2.3-1.12-3.33a11.55,11.55,0,0,1,.75-4.06c.22-1.16-1.64-.84-2.6.89-.71,1.27-.8,2.57-1.38,2.7a11.92,11.92,0,0,1-2.24-1.22c-1-.74-2.76-2-4.14-1.47a1.54,1.54,0,0,0-.95,1,5.81,5.81,0,0,1-.57,2,4.5,4.5,0,0,0-.57.87c-.14.44,0,.79,0,1.23-.07.59-.74,1-.85,1.57-.08.42.15.85.13,1.29,0,.28-.12.55-.13.83a1.92,1.92,0,0,0,.8,1.39,14,14,0,0,0,4.73,2.51c1.46.53,3.41.84,5.05,1.32,11.27,3.35,25.63,11,27.19,10,4.05-2,7.75-14.51,10.2-19.92s2.91-12,4.68-17.42C418.69,148,415.74,149.65,413.29,155.31Z" style="fill:#b16668"></path><path d="M425.16,148.42c-3-.42-5.46-.49-8.09,1.24s-3.1,3.4-4.47,6.49S407,169.41,407,169.41s3.43,4.52,11.34,5.22l6-15.71Z" style="fill:#37474f"></path><path d="M380.7,170.79a4.66,4.66,0,0,1-1.11-3.88,2.15,2.15,0,0,0-.59-2.58,2,2,0,0,1,.16,1.71,1.24,1.24,0,0,1-1.39.59s1.08.62.56,1.58a1.33,1.33,0,0,1-1.53.67,1.27,1.27,0,0,1,.41,1.49,1.22,1.22,0,0,1-1.37.63s.82,1.35-.71,1.55c0,0,1.37.36,1.38-1.05a1.66,1.66,0,0,0,1.41-.67c.34-.47,0-1.42,0-1.42a1,1,0,0,0,.93-.53A2.51,2.51,0,0,0,380.7,170.79Z" style="fill:#9a4a4d"></path><rect x="442.66" y="279.9" width="7.21" height="12.34" transform="translate(-6.85 10.98) rotate(-1.4)" style="fill:#b16668"></rect><path d="M423,283.9c-2.35,1.38-4.76,2.43-7.86.47l.48-15.47,7.68.71Z" style="fill:#b16668"></path><path d="M446.76,194.64c.16,6.56,1.54,44.7,1.54,44.7.21,1.89,2.1,5.2,2.41,12,.45,9.86-.5,33.13-.5,33.13a10.25,10.25,0,0,1-8.1.38s-5.75-32.77-7.22-42.5c-1.28-8.49-4.89-30.71-4.89-30.71l-3.94,29.07a47.81,47.81,0,0,1,.64,10.47c-.21,4.52-3.08,27-3.08,27a15.1,15.1,0,0,1-9.17.31s-1.57-34.95-1.75-39.09c-.2-4.72.87-45.4.87-45.4Z" style="fill:#7371E2"></path><path d="M446.76,194.64c.16,6.56,1.54,44.7,1.54,44.7.21,1.89,2.1,5.2,2.41,12,.45,9.86-.5,33.13-.5,33.13a10.25,10.25,0,0,1-8.1.38s-5.75-32.77-7.22-42.5c-1.28-8.49-4.89-30.71-4.89-30.71l-3.94,29.07a47.81,47.81,0,0,1,.64,10.47c-.21,4.52-3.08,27-3.08,27a15.1,15.1,0,0,1-9.17.31s-1.57-34.95-1.75-39.09c-.2-4.72.87-45.4.87-45.4Z" style="opacity:0.4"></path><path d="M442.73,288.77l0-1c-.38,0-.61.39-.74,1.32a19.78,19.78,0,0,1-.37,2.05,23.37,23.37,0,0,1-1.17,3.72c-1,2.54-1.79,3.5-4.05,6.49a28.41,28.41,0,0,0-2.18,2.63c-.41.79-.52,2.95.24,3.42,2.76,1.75,6.9,1.7,9.8.77a5.91,5.91,0,0,0,4.13-4.87c.09-.67,0-1.34.09-2a9.57,9.57,0,0,1,1.71-4.24,12.31,12.31,0,0,0,1.32-2.31c.57-1.5,0-3.15-.37-4.62-.37-1.26-.77-2.66-1.2-2.52,0,.15,0,.78,0,.78a5.75,5.75,0,0,1-3.57,1.31C445.3,289.72,442.74,289.58,442.73,288.77Z" style="fill:#263238"></path><path d="M415.23,282c-.41,0-.94.59-1.82,1.59a17.2,17.2,0,0,1-4.55,3.44c-2.91,1.55-8.58,4-11.15,5.19-1.6.77-1.48,2.72.23,3.8s5.76,1.77,10.59.57c2.63-.66,6-3.18,8.19-3.1s6.26-.06,7.84-1.2.88-3.5.38-5.53c-.55-2.21-1.14-5.66-1.87-5.49l0,2c-.91,1.45-7.36.8-7.84,0Z" style="fill:#263238"></path><path d="M430,211.63s-4.47-.58-7.14-3.52c0,0,.63,2.87,4.31,4.82l-.72,24.92Z" style="opacity:0.15"></path><path d="M434.92,148.9c2.12.14,6.79.5,8.78.91s2.64,3.58,3,5.26c1.22,5.41-.82,24.28-.82,24.28L447.26,198c-4.58,3.33-24.51,4.95-34.13-2.07,0,0,.47-31,1.27-35.82,1.34-8.07,5.63-11.71,9.2-11.86Z" style="fill:#e6e6e6"></path><path d="M432.68,127.18a9,9,0,1,1-9-9A9,9,0,0,1,432.68,127.18Z" style="fill:#263238"></path><path d="M439.87,133.79s-1.45,6.81-2,7.93a3.08,3.08,0,0,1-1.78,1.44l.1-4.79Z" style="fill:#263238"></path><path d="M438.13,123a3.71,3.71,0,0,1,2.66,1.15c1.19,1.23.56,5.86-.92,9.61l-2.74.31Z" style="fill:#263238"></path><path d="M436.31,134.1c.55.33,1.33-.72,2-1.43a2.37,2.37,0,0,1,4,.64c1.12,2.37-1,5.49-2.71,6-3,.94-3.44-1-3.44-1l-.22,11.13h0a8.65,8.65,0,0,1-8.16,2.82c-2-.35-3.5-1.23-1.59-3.44v-3.29a18.46,18.46,0,0,1-4,.21c-2.2-.34-3.58-2.08-4.25-4.46-1.07-3.83-1.48-6.92-.57-14.45,1-8.25,10.59-8.34,15.78-5.07S436.31,134.1,436.31,134.1Z" style="fill:#b16668"></path><path d="M424.54,126.59a19.16,19.16,0,0,0,6.38-2.37,4.44,4.44,0,0,0,1,2.27,6.87,6.87,0,0,0,2.45,1.61c.19,1.49.19,3.39.28,4.89,0,.5,0,3.13,1.22,2.38a6.06,6.06,0,0,0,1-1.17,16.72,16.72,0,0,1,1.38-1.53c.35-.32.33-1.07.35-1.5a21.82,21.82,0,0,0-.09-2.68c-.08-.92-.23-1.84-.31-2.76a4.43,4.43,0,0,1,.36-1.53,5.44,5.44,0,0,0,.24-1.75,5.37,5.37,0,0,0-3.18-4.23,14.9,14.9,0,0,0-7.67-1.11c-1.65.13-3.25.27-4.91.44-.43,0-.9,0-1.33.08a6.16,6.16,0,0,0-1.46.6,8.57,8.57,0,0,0-2.48,1.77,6,6,0,0,0-1.61,3.31,1.13,1.13,0,0,0,.37,1.21,9.94,9.94,0,0,0,1.59,1A11.44,11.44,0,0,0,424.54,126.59Z" style="fill:#263238"></path><path d="M426.19,145.59a37.93,37.93,0,0,0,6.63-1.9,5.68,5.68,0,0,0,2.38-2.35,7.67,7.67,0,0,1-1.35,2.77c-1.26,1.61-7.66,2.79-7.66,2.79Z" style="fill:#9a4a4d"></path><path d="M426.34,133.09a1.06,1.06,0,1,0,1.05-1.1A1.07,1.07,0,0,0,426.34,133.09Z" style="fill:#263238"></path><path d="M427.39,129.51l2.19,1.21a1.31,1.31,0,0,0-.51-1.74A1.23,1.23,0,0,0,427.39,129.51Z" style="fill:#263238"></path><path d="M426.6,139.53l-2.43.91a1.28,1.28,0,0,0,1.65.81A1.34,1.34,0,0,0,426.6,139.53Z" style="fill:#9a4a4d"></path><path d="M417.64,130.39l2-1.53a1.21,1.21,0,0,0-1.73-.27A1.32,1.32,0,0,0,417.64,130.39Z" style="fill:#263238"></path><path d="M418.09,132.89a1,1,0,1,0,2,0,1,1,0,1,0-2,0Z" style="fill:#263238"></path><polygon points="423.89 131.32 423.55 137.74 420.19 136.6 423.89 131.32" style="fill:#9a4a4d"></polygon><path d="M442,126.3a13.77,13.77,0,0,1-.56,3.87c-.32-.33-.67-.65-1-1a22.77,22.77,0,0,0-7-3.9h0c-5.91-2.11-12.93-2.33-18.33-.26a12.81,12.81,0,0,1,.73-3.28A13.5,13.5,0,0,1,442,126.3Z" style="fill:#7371E2"></path><path d="M434.87,113.48c-.7-.26-4.19-1-4.47-1a8.08,8.08,0,0,0-7.29,2.6,13.76,13.76,0,0,0-3.84,7.76l3.71.78h1.16c.17-2.68,3.12-8.72,8-9.4a4,4,0,0,1,.69-.06,6.57,6.57,0,0,1,1.94.2,18.42,18.42,0,0,1,2.05,1.35A3,3,0,0,0,434.87,113.48Z" style="fill:#7371E2"></path><path d="M434.87,113.48c-.7-.26-4.19-1-4.47-1a8.08,8.08,0,0,0-7.29,2.6,13.76,13.76,0,0,0-3.84,7.76l3.71.78h1.16c.17-2.68,3.12-8.72,8-9.4a4,4,0,0,1,.69-.06,6.57,6.57,0,0,1,1.94.2,18.42,18.42,0,0,1,2.05,1.35A3,3,0,0,0,434.87,113.48Z" style="fill:#fff;opacity:0.45"></path><path d="M424.14,123.62c.21-3.13,4.21-10.87,10.62-9.27a19.17,19.17,0,0,1,2.06,1.34,3,3,0,0,0-1.95-2.21c-1.69-.62-5-.7-8.06,2.38a13.73,13.73,0,0,0-3.82,7.76Z" style="fill:#7371E2"></path><path d="M424.14,123.62c.21-3.13,4.21-10.87,10.62-9.27a19.17,19.17,0,0,1,2.06,1.34,3,3,0,0,0-1.95-2.21c-1.69-.62-5-.7-8.06,2.38a13.73,13.73,0,0,0-3.82,7.76Z" style="opacity:0.30000000000000004"></path><path d="M433.33,124.24a15.12,15.12,0,0,0-6.49-4.74c-2.9-1.21-8.57-.74-11.1-.46-4.43.5-5.4,1.55-5.4,2.2,0,.16,0,.89,0,1.05a.59.59,0,0,0,.13.41c.76,1,4.52,2.35,4.52,2.35,5.4-2.07,12.42-1.85,18.33.26Z" style="fill:#7371E2"></path><path d="M433.33,124.24a15.12,15.12,0,0,0-6.49-4.74c-2.9-1.21-8.57-.74-11.1-.46-4.43.5-5.4,1.55-5.4,2.2,0,.16,0,.89,0,1.05a.59.59,0,0,0,.13.41c.76,1,4.52,2.35,4.52,2.35,5.4-2.07,12.42-1.85,18.33.26Z" style="opacity:0.15"></path><path d="M433.33,125.31c-5.91-2.11-12.93-2.33-18.33-.26,0,0-3.76-1.4-4.52-2.35-.41-.52-.23-2,5.26-2.59,2.53-.29,8.2-.75,11.1.45A15,15,0,0,1,433.33,125.31Z" style="fill:#7371E2"></path><path d="M433.33,125.31c-5.91-2.11-12.93-2.33-18.33-.26,0,0-3.76-1.4-4.52-2.35-.41-.52-.23-2,5.26-2.59,2.53-.29,8.2-.75,11.1.45A15,15,0,0,1,433.33,125.31Z" style="opacity:0.30000000000000004"></path><polygon points="396.26 178.64 422.04 180.38 435.14 209.43 410.51 207.14 396.26 178.64" style="fill:#7371E2"></polygon><polygon points="396.26 178.64 422.04 180.38 435.14 209.43 410.51 207.14 396.26 178.64" style="opacity:0.1"></polygon><path d="M420.12,198.74a5.82,5.82,0,0,0,4.6,3.68,12.88,12.88,0,0,0,6.7-1.25l-1.1-2.43Z" style="opacity:0.15"></path><path d="M404.29,181.66l-.38-.89c-.21-.5,1.22-.8,3.21-.67l3.79.24c2,.13,3.76.63,4,1.13l.38.89Z" style="opacity:0.15"></path><path d="M401.91,178.46c-.13-.31.44-.5,1.27-.44l1.51.12s-.82-1.94,2.49-1.84a5.06,5.06,0,0,1,4.45,2.26l1.61.14a2.91,2.91,0,0,1,1.91.68l.29.55L402.16,179S402.05,178.77,401.91,178.46Z" style="fill:#f0f0f0"></path><path d="M403.85,179.14c1.21.05,1.72.12,2,.88s.58,1.52.58,1.52l5.88.4s-.5-1.1-.67-1.53,0-.74.9-.67v-.38l-9.19-.54Z" style="fill:#e0e0e0"></path><path d="M404.16,181.78s-.17-.4-.39-.89,1.23-.8,3.21-.67l3.8.24c2,.12,3.76.63,4,1.12l.38.9Z" style="fill:#f5f5f5"></path><path d="M422.25,194a17.09,17.09,0,0,0,5.26-1.53,12.22,12.22,0,0,1-2.95-.8,1.83,1.83,0,0,1-1.13-2.22c.15-.37,1,.07,2.65,0,2.06-.1,3.46-.45,5.64,0,.82.17,1.94.73,2.66.32,4.07-2.36,14.37-9.8,14.37-9.8l-4.22-14.34s-5.15-10-.83-15.78c3.25.55,6.85.24,9.27,8.85,1.66,5.91,4.28,15,5.8,20.72,1.11,4.22-.08,5.47-1.15,6.2-3.14,2.15-6.9,3.92-14.23,7.56-3.09,1.54-8.21,4.48-10.21,5.52-6.94,3.61-10.3,3.26-12.71.92C416.62,195.84,418.08,194.48,422.25,194Z" style="fill:#b16668"></path><path d="M442.86,149.66a14,14,0,0,1,6.07,1.3c.88.51,2.46,1.52,4.48,8s3.73,13,3.73,13-2.59,3.16-10.11,3.63l-3.86-11.09S438.63,155.44,442.86,149.66Z" style="fill:#37474f"></path></g></g><g id="freepik--character-1--inject-280"><g id="freepik--Glass--inject-280"><g id="freepik--magnifying-glass--inject-280"><path d="M123.45,286h0c.53-1.09,1.78-1.83,3.63-2a12.82,12.82,0,0,1,10.46,5.06c1.05,1.53,1.24,3,.71,4.06h0L104,371.56h0c-.67,1.65-2.45,2.79-5.16,3-5.17.38-11.72-2.78-14.63-7.07-1.53-2.24-1.74-4.35-.86-5.9h0Z" style="fill:#7371E2"></path><path d="M123.45,286h0c.53-1.09,1.78-1.83,3.63-2a12.82,12.82,0,0,1,10.46,5.06c1.05,1.53,1.24,3,.71,4.06h0L104,371.56h0c-.67,1.65-2.45,2.79-5.16,3-5.17.38-11.72-2.78-14.63-7.07-1.53-2.24-1.74-4.35-.86-5.9h0Z" style="fill:#fff;opacity:0.6000000000000001"></path><path d="M137.54,289.11c2.09,3.06.78,5.77-2.92,6a12.83,12.83,0,0,1-10.46-5.06c-2.08-3.06-.78-5.77,2.92-6A12.82,12.82,0,0,1,137.54,289.11Z" style="fill:#7371E2"></path><path d="M135.88,271.38a7.75,7.75,0,0,1,6.33,3.05,2.47,2.47,0,0,1,.43,2.46h0l-7.31,14.86h0a2.47,2.47,0,0,1-2.2,1.19,7.75,7.75,0,0,1-6.32-3.05,2.47,2.47,0,0,1-.43-2.46l7.31-14.87h0A2.47,2.47,0,0,1,135.88,271.38Z" style="fill:#7371E2"></path><path d="M135.88,271.38a7.75,7.75,0,0,1,6.33,3.05,2.47,2.47,0,0,1,.43,2.46h0l-7.31,14.86h0a2.47,2.47,0,0,1-2.2,1.19,7.75,7.75,0,0,1-6.32-3.05,2.47,2.47,0,0,1-.43-2.46l7.31-14.87h0A2.47,2.47,0,0,1,135.88,271.38Z" style="opacity:0.2"></path><path d="M142.21,274.43a5.84,5.84,0,0,0-.56-.69.52.52,0,0,1-.11-.1c-.19-.18-.39-.37-.6-.54l-.05,0a7.79,7.79,0,0,0-5-1.69,2.47,2.47,0,0,0-2.19,1.19l-2.45,5a26,26,0,0,0,4.34,2.61l-5.53,12.21a6.87,6.87,0,0,0,3.08.58,2.47,2.47,0,0,0,2.2-1.19h0l4.91-10h0l2.4-4.87h0A2.47,2.47,0,0,0,142.21,274.43Z" style="opacity:0.15"></path><path d="M131,294.72,95,374.26a14.49,14.49,0,0,0,3.79.29c2.7-.2,4.49-1.33,5.16-3h0l34.26-78.38c-.53,1.1-1.78,1.83-3.63,2A10.45,10.45,0,0,1,131,294.72Z" style="fill:#7371E2;opacity:0.4"></path><path d="M233.74,171.71c0-.68-.05-1.33-.11-2s-.08-1.3-.14-1.94c0-.43-.08-.85-.14-1.29-.11-1.11-.27-2.21-.45-3.26-.08-.48-.17-1-.27-1.45s-.18-.91-.28-1.35c-.28-1.21-.57-2.4-.92-3.54-.17-.54-.34-1.08-.53-1.6a2.41,2.41,0,0,1-.08-.25c-.19-.53-.37-1-.57-1.53s-.46-1.15-.72-1.7-.36-.8-.58-1.19a5.7,5.7,0,0,0-.42-.86c-.17-.34-.35-.7-.55-1,0-.08-.08-.16-.13-.23-.16-.29-.35-.59-.52-.89s-.25-.37-.36-.56a28.69,28.69,0,0,0-2.84-3.76l-.52-.59c-.15-.17-.3-.31-.45-.47s-.37-.37-.57-.57a18.58,18.58,0,0,0-1.71-1.53c-.28-.24-.58-.47-.87-.69s-.59-.44-.91-.66c-.48-.34-1-.67-1.46-.95l-.39-.25-.08-.06h0L208,132.12h0l-.13-.08a29.29,29.29,0,0,0-14.64-3.7c-7.63,0-16.24,2.5-25.37,7.76C136.45,154.2,111,198.22,111,234.43c0,18,6.31,30.75,16.52,36.7l.1.05h0l9.2,5.39s0,0,0,0l.1.06h0l.14.07.14.08c.44.25.89.49,1.35.7s1.14.53,1.71.75a15.47,15.47,0,0,0,1.56.58,5.35,5.35,0,0,0,.84.25,5.47,5.47,0,0,0,.9.26c.31.1.61.17.92.24a5.47,5.47,0,0,0,.68.14c.4.08.82.17,1.24.22a.82.82,0,0,0,.28,0c.48.08,1,.16,1.47.2,8.45.89,18.29-1.49,28.81-7.56,31.36-18.1,56.78-62.14,56.78-98.33C233.79,173.42,233.77,172.56,233.74,171.71ZM130.3,257.13a55.51,55.51,0,0,1-1.92-14.86c0-34.3,25.1-77.79,54.81-94.94a53,53,0,0,1,13.9-5.75,30.35,30.35,0,0,1,7.16-.91,23,23,0,0,1,3.62.28l.1,0c6.08,7.19,7,18.72,7,24.88,0,34.3-25.08,77.78-54.79,94.93-7.57,4.36-14.83,6.67-21.07,6.67a14.21,14.21,0,0,1-3.83-.5h0A27,27,0,0,1,130.3,257.13Z" style="fill:#7371E2"></path><path d="M233.74,171.71c0-.68-.05-1.33-.11-2s-.08-1.3-.14-1.94c0-.43-.08-.85-.14-1.29-.11-1.11-.27-2.21-.45-3.26-.08-.48-.17-1-.27-1.45s-.18-.91-.28-1.35c-.28-1.21-.57-2.4-.92-3.54-.17-.54-.34-1.08-.53-1.6a2.41,2.41,0,0,1-.08-.25c-.19-.53-.37-1-.57-1.53s-.46-1.15-.72-1.7-.36-.8-.58-1.19a5.7,5.7,0,0,0-.42-.86c-.17-.34-.35-.7-.55-1,0-.08-.08-.16-.13-.23-.16-.29-.35-.59-.52-.89s-.25-.37-.36-.56a28.69,28.69,0,0,0-2.84-3.76l-.52-.59c-.15-.17-.3-.31-.45-.47s-.37-.37-.57-.57a18.58,18.58,0,0,0-1.71-1.53c-.28-.24-.58-.47-.87-.69s-.59-.44-.91-.66c-.48-.34-1-.67-1.46-.95l-.39-.25-.08-.06h0L208,132.12h0l-.13-.08a29.29,29.29,0,0,0-14.64-3.7c-7.63,0-16.24,2.5-25.37,7.76C136.45,154.2,111,198.22,111,234.43c0,18,6.31,30.75,16.52,36.7l.1.05h0l9.2,5.39s0,0,0,0l.1.06h0l.14.07.14.08c.44.25.89.49,1.35.7s1.14.53,1.71.75a15.47,15.47,0,0,0,1.56.58,5.35,5.35,0,0,0,.84.25,5.47,5.47,0,0,0,.9.26c.31.1.61.17.92.24a5.47,5.47,0,0,0,.68.14c.4.08.82.17,1.24.22a.82.82,0,0,0,.28,0c.48.08,1,.16,1.47.2,8.45.89,18.29-1.49,28.81-7.56,31.36-18.1,56.78-62.14,56.78-98.33C233.79,173.42,233.77,172.56,233.74,171.71ZM130.3,257.13a55.51,55.51,0,0,1-1.92-14.86c0-34.3,25.1-77.79,54.81-94.94a53,53,0,0,1,13.9-5.75,30.35,30.35,0,0,1,7.16-.91,23,23,0,0,1,3.62.28l.1,0c6.08,7.19,7,18.72,7,24.88,0,34.3-25.08,77.78-54.79,94.93-7.57,4.36-14.83,6.67-21.07,6.67a14.21,14.21,0,0,1-3.83-.5h0A27,27,0,0,1,130.3,257.13Z" style="fill:#fff;opacity:0.6000000000000001"></path><path d="M225.62,171.86c0,18.22-7.08,39-18.17,57.11-.52.86-1.06,1.7-1.6,2.55s-.94,1.45-1.43,2.17c-1,1.55-2.1,3.08-3.2,4.57-.52.72-1.05,1.42-1.59,2.12s-1.17,1.52-1.77,2.28c-1.14,1.44-2.32,2.84-3.52,4.2-.79.92-1.6,1.81-2.41,2.68a92.38,92.38,0,0,1-21.11,17.24q-2.13,1.23-4.21,2.24a42.15,42.15,0,0,1-14.45,4.32c-.82.08-1.62.11-2.39.11q-.61,0-1.2,0h0a20.13,20.13,0,0,1-2.25-.24c-.37-.05-.73-.11-1.07-.19s-.7-.15-1-.25a16.69,16.69,0,0,1-8.9-5.76,14.7,14.7,0,0,0,3.83.48c6.23,0,13.5-2.3,21.06-6.66,29.72-17.14,54.8-60.63,54.8-94.93,0-6.16-.9-17.69-7-24.88l-.1,0c7.75,1.24,12.16,6.5,14.64,12.59a35.32,35.32,0,0,1,1.69,5.32c0,.1.05.2.07.3.08.32.16.66.22,1s.13.64.19,1a1.87,1.87,0,0,1,0,.25q.1.52.18,1c.2,1.27.36,2.51.46,3.7,0,.35.06.68.08,1s0,.5.06.74,0,.21,0,.31c0,.27,0,.53.05.79v.22c0,.32,0,.65,0,1C225.62,170.72,225.62,171.3,225.62,171.86Z" style="fill:#7371E2;opacity:0.4"></path><path d="M144.82,270.54a30.76,30.76,0,0,0,7.15-.9,53,53,0,0,0,13.91-5.75c29.71-17.16,54.81-60.64,54.81-94.94a55.47,55.47,0,0,0-1.92-14.86c-1.33-4.59-3.55-9.07-7.23-12.16l-.35-.13c-.33-.11-.65-.22-1-.31l-.59-.17-1-.23L208,141h-.06l.06,0c6.08,7.19,7,18.72,7,24.88,0,34.3-25.08,77.79-54.8,94.93-7.56,4.36-14.83,6.66-21.06,6.66a14.7,14.7,0,0,1-3.83-.48l.06.07a18.3,18.3,0,0,0,2.23,2.26A20.49,20.49,0,0,0,144.82,270.54Z" style="fill:#fff;opacity:0.30000000000000004"></path><path d="M136.07,276.13l-8.52-5c-10.21-6-16.53-18.66-16.53-36.68,0-16.15,5.07-33.84,13.44-50.09l9.7,5.59c-8.38,16.24-13.93,33.75-13.93,49.89C120.23,257.49,126.24,270,136.07,276.13Z" style="fill:#7371E2;opacity:0.4"></path><path d="M217.25,137.59l-.08-.06h0l-9.19-5.4h0l-.13-.08a29.15,29.15,0,0,0-14.63-3.7c-7.63,0-16.25,2.49-25.38,7.75-17.37,10-32.92,28-43.32,48.25l9.65,5.69c-.06.13-.14.26-.2.4,10.43-20,25.91-38.1,43.09-48.93,15.56-9.8,30.33-9.94,40.64-3.67Z" style="fill:#fff;opacity:0.4"></path></g></g><g id="freepik--character--inject-280"><path d="M63.39,280.46c-5.94-.67-8.23,1.08-10.44,6-2.12,4.71-8.59,18.88-8.26,22.19S58.54,326,58.54,326l3.86-4.69L54,307.28l6.66-14.19Z" style="fill:#ffa8a7"></path><g id="freepik--character--inject-280"><polygon points="75.34 275.81 74.22 287.48 63.79 286.83 64.63 273.88 75.34 275.81" style="fill:#ffa8a7"></polygon><path d="M72.22,271.75c.53-.66,1-1.39,1.47-2.05a25.36,25.36,0,0,1,1.8-1.94c1.28-1.31,2.62-2.57,4-3.75,1.78-1.5,4-2.89,4.83-5.18A4.19,4.19,0,0,0,83.18,254a7.68,7.68,0,0,0,.76-3.15,4.46,4.46,0,0,0-1.08-3,5.29,5.29,0,0,0-4.08-1.46,30.18,30.18,0,0,0-4.42.73c-2,.36-3.77,0-5.71-.08a14.72,14.72,0,0,0-6,1,9,9,0,0,0-3.24,2.15,5.17,5.17,0,0,0-1.09,1.64,10.18,10.18,0,0,0-.24,1.84c-.24,1.21-.76,2.36-1,3.59a30.5,30.5,0,0,0-.39,4.16c-.22,5.77,13.15,9.51,12.89,13.46Z" style="fill:#263238"></path><path d="M83.08,263s2.31,3.43,2,3.8a5.56,5.56,0,0,1-1.77.74Z" style="fill:#f28f8f"></path><path d="M76,252.13c2.25,1.14,6.13,3.24,7.13,11.37,1,8.35-.87,11.25-2,12.34-.78.74-4.81,1-6.91.36-2.64-.8-8.34-3.57-11-7.87-3.14-5.07-3.79-11.83-.16-14.47C68.14,250.13,74.12,251.16,76,252.13Z" style="fill:#ffa8a7"></path><path d="M80.91,276a11.79,11.79,0,0,1-5.63.44l.06-1.5a14.74,14.74,0,0,0,2.66.87A9.62,9.62,0,0,0,80.91,276Z" style="fill:#f28f8f"></path><path d="M77,251.88a8.8,8.8,0,0,1,2.61,1.5,3.53,3.53,0,0,1,.92,1.19,2.79,2.79,0,0,1,.19,1.34,3.59,3.59,0,0,1-2.1,2.91,3.49,3.49,0,0,1,.57,2.9,6.87,6.87,0,0,1-2.06,3,.43.43,0,0,1-.17.13.47.47,0,0,1-.37-.11c-1.41-.95-2.14-2.36-4.13-1.7-2.32.77-2.38,3.71-.75,5.7a2.63,2.63,0,0,0,2.13,1.2,1.24,1.24,0,0,0,1.32-.75s.17,5.75-3.49,7.41a14.94,14.94,0,0,1-7.2-.41,25.82,25.82,0,0,1-6.38-7.42c-4.71-7.8-2.23-16.22,3.43-18.3.32-.12.65-.2,1-.29a19.58,19.58,0,0,1,9.1-.19,19,19,0,0,1,4.34,1.46C76.3,251.58,76.66,251.73,77,251.88Z" style="fill:#263238"></path><path d="M59.46,251.22c-9.53-3.32-12.93,4.25-12.68,10.71.13,3.46,1.85,10.31-2.36,13.82-3.86,3.21-3.53,5.22-1.54,7s7.56,1.58,10.9-2.41c4.09-4.88,1.88-11.76.15-17.2-1.18-3.67.44-8.85,4-8.56Z" style="fill:#263238"></path><path d="M77.3,267.63a1.94,1.94,0,0,0,1.19-2.49A2,2,0,0,0,76,264Z" style="fill:#263238"></path><path d="M74.57,428.43a35.88,35.88,0,0,0-1,3.47c-.29,1.29-.7,3.44-.27,4.42s2.34,1.68,5,2.07c2.18.32,3.94,1.31,6.7,2.42a15.13,15.13,0,0,0,7.57,1.24c3.52-.2,5-1.84,5.45-2.84s.78-2.38-5.78-4.62c0,0-7.93-2.76-10.64-5.88Z" style="fill:#263238"></path><path d="M74.57,428.61l1.26-.13,5.81.23c2.71,3.12,10.59,5.86,10.64,5.88l1,.37c1.13,1,.13,2.5-2.6,2.69s-11.15-2.83-13-3.77A5.62,5.62,0,0,1,74.57,428.61Z" style="fill:#ffa8a7"></path><path d="M74.62,426.12s0,1.59-.05,2.49,1,2.28,3.79,2.24c2,0,3.32-.53,3.28-2.14l0-2.31Z" style="fill:#ffa8a7"></path><path d="M56.16,417.27c-.39,0-.5.58-.81,2.84-.19,1.43-.54,3.39.86,4.36,1.87,1.31,4.8.91,5.87-.46,1.34-1.71,2.25-3.21,4.17-5.3,1.66-1.81,3.81-3.43,4.59-5.93.87-2.79,0-4.07-1.85-4.26a7.53,7.53,0,0,0-5.31,1.84,9.54,9.54,0,0,1-2,1C60.28,411.76,56.69,417.22,56.16,417.27Z" style="fill:#263238"></path><path d="M56.15,415.87v2.35s1.51,3.1,5.93.11c.1-.22.58-4.75.58-4.75Z" style="fill:#ffa8a7"></path><path d="M61.73,411.34a9.54,9.54,0,0,0,2-1h0c1.77-.53,5.46.19,3.74,2.71a19.56,19.56,0,0,1-5.33,5.26c-2,.94-2.66-.28-2.66-.28l.81-5.48A4.32,4.32,0,0,1,61.73,411.34Z" style="fill:#ffa8a7"></path><path d="M53.6,383.38a55.86,55.86,0,0,1,2.77-12.08S55.1,360.92,54.13,351c-2.27-23.36-.44-23.7,3-31.74,0,0,30-3.26,31,9.19,1.25,15.51,0,45.5-.41,51s-.86,8-2.72,19.42c-1.41,8.73-3,27.84-3,27.84-4,2.18-7.68-.55-7.68-.55s-3.28-23.6-3.07-29.92a54,54,0,0,1,2.3-13.82s-2-25.27-2.62-29.29c0,0-.88,8-1.25,13.51s-2,10.73-3.47,20.92c-1.31,8.84-3.56,27.31-3.56,27.31-4,2.18-6.68,1.1-6.68,1.1S52.58,391.05,53.6,383.38Z" style="fill:#7371E2"></path><g style="opacity:0.4"><path d="M53.6,383.38a55.86,55.86,0,0,1,2.77-12.08S55.1,360.92,54.13,351c-2.27-23.36-.44-23.7,3-31.74,0,0,30-3.26,31,9.19,1.25,15.51,0,45.5-.41,51s-.86,8-2.72,19.42c-1.41,8.73-3,27.84-3,27.84-4,2.18-7.68-.55-7.68-.55s-3.28-23.6-3.07-29.92a54,54,0,0,1,2.3-13.82s-2-25.27-2.62-29.29c0,0-.88,8-1.25,13.51s-2,10.73-3.47,20.92c-1.31,8.84-3.56,27.31-3.56,27.31-4,2.18-6.68,1.1-6.68,1.1S52.58,391.05,53.6,383.38Z"></path></g><path d="M70.94,353.08l-1.22-10.93a18.85,18.85,0,0,1-11.53-4.26s1.88,4,9.79,5.91l1.32,11.25.33,12.36Q70.16,360.17,70.94,353.08Z" style="opacity:0.15"></path><path d="M55.73,285.28c1-3,3.09-4.77,7.66-4.82l.81,0c.32,1.68,5.69,3.21,10.55,1.49.67.12,3,.39,4,.53l2.33.34c3.54,1.16,5.1,7.3,5.44,17.05s1.8,30.59,1.8,30.59-7.61,4.08-19.63,2.5c-10.75-1.41-15.52-7.75-15.15-6.93a105.41,105.41,0,0,1,6.14-15.65C54.07,296.49,54.23,289.75,55.73,285.28Z" style="fill:#455a64"></path><path d="M74.7,333.34a42.14,42.14,0,0,1-6-.36,26.16,26.16,0,0,1-15.14-7,100.56,100.56,0,0,1,6.13-15.59c-2.86-7-4.23-12.22-4.7-16.22.47,2.91,4.78,14.21,10.42,17.59,0,0-3.19.5-5.91,4.24S59.05,332.53,74.7,333.34Z" style="fill:#37474f"></path><path d="M78.8,282.5c4.69.59,8.4,1.57,10.45,6,3.47,7.58,7.22,13.8,10,16.72,2.92,3.13,14.88,8.63,17.57,8.19s5.39-3.54,6.77-2.74-1.18,3.81-1,4.49,5.06.31,7.37-1.32,3.16,1.74.17,5.24-8.6,3.78-14.7,2.55-17.6-4.43-22.28-8.28c-5.67-4.67-7.6-8.21-10-12.4C74.34,292,78.8,282.5,78.8,282.5Z" style="fill:#ffa8a7"></path></g></g></g><g id="freepik--check-boxes--inject-280"><g id="freepik--check-boxes--inject-280"><g id="freepik--speach-bubble--inject-280"><path d="M356.2,49.92a3.46,3.46,0,0,0-1.57-2.72l-1.28-.74a3.45,3.45,0,0,0-3.13,0L330.65,57.78a3.46,3.46,0,0,0-1.57,2.72V82a3.46,3.46,0,0,0,1.57,2.72l1.27.74a3.47,3.47,0,0,0,3.14,0l19.57-11.32a3.46,3.46,0,0,0,1.57-2.72Z" style="fill:#7371E2"></path><path d="M329.08,82a3.46,3.46,0,0,0,1.57,2.72l1.27.74a3.5,3.5,0,0,0,2.87.12c-.74.28-1.3-.14-1.3-1V63.05A3.26,3.26,0,0,1,334,61.5L329.54,59a3.29,3.29,0,0,0-.46,1.55Z" style="opacity:0.2"></path><path d="M356.15,49.47c-.19-.67-.79-.88-1.52-.46L335.06,60.33A3.21,3.21,0,0,0,334,61.5L329.54,59a3.22,3.22,0,0,1,1.11-1.17l19.57-11.33a3.52,3.52,0,0,1,3.13,0l1.28.74A3.51,3.51,0,0,1,356.15,49.47Z" style="fill:#fff;opacity:0.5"></path><path id="freepik--Check--inject-280" d="M351.37,55A1.81,1.81,0,0,0,349,56l-6.8,16.18-1.62-1.57a1.8,1.8,0,0,0-2.51,2.58l3.51,3.41a1.8,1.8,0,0,0,1.26.51,1.53,1.53,0,0,0,.36,0,1.8,1.8,0,0,0,1.3-1.06l7.82-18.61A1.81,1.81,0,0,0,351.37,55Z" style="fill:#fafafa"></path></g><path d="M362.22,50.45c0,1,.72,1.32,1.61.81l26.92-15.54a3.46,3.46,0,0,0,1.6-2.67c0-1-.72-1.32-1.6-.81L363.83,47.78A3.44,3.44,0,0,0,362.22,50.45Z" style="fill:#455a64"></path><path d="M362.22,57.41c0,1,.72,1.32,1.61.81l26.92-15.54a3.46,3.46,0,0,0,1.6-2.67c0-1-.72-1.32-1.6-.81L363.83,54.74A3.43,3.43,0,0,0,362.22,57.41Z" style="fill:#455a64"></path><path d="M362.22,64.36c0,1,.72,1.33,1.61.82l26.92-15.54a3.48,3.48,0,0,0,1.6-2.67c0-1-.72-1.33-1.6-.81L363.83,61.7A3.43,3.43,0,0,0,362.22,64.36Z" style="fill:#455a64"></path><g id="freepik--speach-bubble--inject-280"><path d="M356.2,88.39a3.46,3.46,0,0,0-1.57-2.72l-1.28-.74a3.45,3.45,0,0,0-3.13,0L330.65,96.25A3.46,3.46,0,0,0,329.08,99V120.5a3.46,3.46,0,0,0,1.57,2.72l1.27.74a3.47,3.47,0,0,0,3.14,0l19.57-11.32a3.46,3.46,0,0,0,1.57-2.72Z" style="fill:#7371E2"></path><path d="M329.08,120.5a3.46,3.46,0,0,0,1.57,2.72l1.27.74a3.5,3.5,0,0,0,2.87.12c-.74.28-1.3-.14-1.3-1V101.52A3.26,3.26,0,0,1,334,100l-4.41-2.55a3.29,3.29,0,0,0-.46,1.55Z" style="opacity:0.2"></path><path d="M356.15,87.94c-.19-.66-.79-.88-1.52-.46L335.06,98.8A3.21,3.21,0,0,0,334,100l-4.41-2.54a3.22,3.22,0,0,1,1.11-1.17l19.57-11.32a3.45,3.45,0,0,1,3.13,0l1.28.73A3.51,3.51,0,0,1,356.15,87.94Z" style="fill:#fff;opacity:0.5"></path><path id="freepik--check--inject-280" d="M351.37,93.5a1.81,1.81,0,0,0-2.36,1l-6.8,16.18-1.62-1.57a1.8,1.8,0,0,0-2.51,2.58l3.51,3.41a1.8,1.8,0,0,0,1.26.51,1.53,1.53,0,0,0,.36,0,1.8,1.8,0,0,0,1.3-1.06l7.82-18.61A1.81,1.81,0,0,0,351.37,93.5Z" style="fill:#fafafa"></path></g><path d="M362.22,88.92c0,1,.72,1.32,1.61.81l26.92-15.54a3.46,3.46,0,0,0,1.6-2.67c0-1-.72-1.32-1.6-.81L363.83,86.25A3.44,3.44,0,0,0,362.22,88.92Z" style="fill:#455a64"></path><path d="M362.22,95.88c0,1,.72,1.32,1.61.81l26.92-15.54a3.46,3.46,0,0,0,1.6-2.67c0-1-.72-1.32-1.6-.81L363.83,93.21A3.44,3.44,0,0,0,362.22,95.88Z" style="fill:#455a64"></path><path d="M362.22,102.83c0,1,.72,1.33,1.61.82l26.92-15.54a3.48,3.48,0,0,0,1.6-2.67c0-1-.72-1.33-1.6-.81l-26.92,15.54A3.43,3.43,0,0,0,362.22,102.83Z" style="fill:#455a64"></path><g id="freepik--speach-bubble--inject-280"><path d="M356.2,126.86a3.46,3.46,0,0,0-1.57-2.72l-1.28-.74a3.45,3.45,0,0,0-3.13,0l-19.57,11.32a3.46,3.46,0,0,0-1.57,2.72V159a3.46,3.46,0,0,0,1.57,2.72l1.27.74a3.47,3.47,0,0,0,3.14,0l19.57-11.32a3.46,3.46,0,0,0,1.57-2.72Z" style="fill:#e6e6e6"></path><path d="M329.08,159a3.46,3.46,0,0,0,1.57,2.72l1.27.74a3.5,3.5,0,0,0,2.87.12c-.74.28-1.3-.13-1.3-1V140a3.26,3.26,0,0,1,.46-1.55l-4.41-2.55a3.29,3.29,0,0,0-.46,1.55Z" style="fill:#e0e0e0"></path><path d="M356.15,126.41c-.19-.66-.79-.88-1.52-.46l-19.57,11.32a3.21,3.21,0,0,0-1.11,1.17l-4.41-2.54a3.22,3.22,0,0,1,1.11-1.17l19.57-11.32a3.45,3.45,0,0,1,3.13,0l1.28.73A3.51,3.51,0,0,1,356.15,126.41Z" style="fill:#fff;opacity:0.5"></path></g><path d="M362.22,127.39c0,1,.72,1.32,1.61.81l26.92-15.54a3.46,3.46,0,0,0,1.6-2.67c0-1-.72-1.32-1.6-.81l-26.92,15.54A3.44,3.44,0,0,0,362.22,127.39Z" style="fill:#455a64"></path><path d="M362.22,134.35c0,1,.72,1.32,1.61.81l26.92-15.54a3.46,3.46,0,0,0,1.6-2.67c0-1-.72-1.32-1.6-.81l-26.92,15.54A3.44,3.44,0,0,0,362.22,134.35Z" style="fill:#455a64"></path><path d="M362.22,141.3c0,1,.72,1.33,1.61.82l26.92-15.54a3.48,3.48,0,0,0,1.6-2.67c0-1-.72-1.33-1.6-.81l-26.92,15.54A3.43,3.43,0,0,0,362.22,141.3Z" style="fill:#455a64"></path></g></g></svg>